<?xml version="1.0" encoding="UTF-8" standalone="no"?>
<svg width="24px" height="24px" viewBox="0 0 24 24" version="1.1" xmlns="http://www.w3.org/2000/svg" xmlns:xlink="http://www.w3.org/1999/xlink" xmlns:sketch="http://www.bohemiancoding.com/sketch/ns">
    <title>Untitled 2</title>
    <description>Created with Sketch (http://www.bohemiancoding.com/sketch)</description>
    <defs></defs>
    <g id="Page-1" stroke="none" stroke-width="1" fill="none" fill-rule="evenodd" sketch:type="MSPage">
        <path d="M8.99917125,0 C4.02995795,0 0,4.13137845 0,9.22804812 C0,13.305044 2.57853218,16.7634377 6.15488505,17.9836474 C6.60517511,18.0686202 6.76926855,17.783678 6.76926855,17.5389563 C6.76926855,17.3202929 6.7615335,16.7396453 6.75711348,15.9697916 C4.25372172,16.5272133 3.72552871,14.7325873 3.72552871,14.7325873 C3.31612388,13.6664617 2.72605052,13.3826525 2.72605052,13.3826525 C1.90889837,12.8105022 2.78793088,12.8218319 2.78793088,12.8218319 C3.69127352,12.8869777 4.16642623,13.772961 4.16642623,13.772961 C4.9692133,15.1829433 6.27312072,14.7756402 6.78584364,14.5394158 C6.86761411,13.9434731 7.10021793,13.5367365 7.35713189,13.3061769 C5.35872801,13.0733514 3.25755855,12.2814047 3.25755855,8.74540251 C3.25755855,7.73819137 3.60839805,6.91395502 4.18410633,6.26929457 C4.0912858,6.03590256 3.78243654,5.09723616 4.27250683,3.82717576 C4.27250683,3.82717576 5.02777863,3.57905513 6.74716842,4.77320648 C7.46487001,4.56813874 8.23505939,4.46617136 9.00027625,4.46220596 C9.76494061,4.46617136 10.5345775,4.56813874 11.2533841,4.77320648 C12.9716689,3.57905513 13.7258357,3.82717576 13.7258357,3.82717576 C14.217011,5.09723616 13.9081617,6.03590256 13.8158937,6.26929457 C14.392707,6.91395502 14.7407839,7.73819137 14.7407839,8.74540251 C14.7407839,12.2904685 12.6362995,13.070519 10.631818,13.2988126 C10.9544799,13.5837548 11.242334,14.1468414 11.242334,15.0078993 C11.242334,16.2411381 11.231284,17.2364531 11.231284,17.5389563 C11.231284,17.7859439 11.3937199,18.0731521 11.8500875,17.9830809 C15.4236778,16.7600388 18,13.303911 18,9.22804812 C18,4.13137845 13.9700421,0 8.99917125,0" id="Fill-4" fill="#6490A8" sketch:type="MSShapeGroup"></path>
    </g>
</svg>