<?xml version="1.0" encoding="UTF-8" standalone="no"?>
<svg width="10px" height="21px" viewBox="0 0 10 21" version="1.1" xmlns="http://www.w3.org/2000/svg" xmlns:xlink="http://www.w3.org/1999/xlink" xmlns:sketch="http://www.bohemiancoding.com/sketch/ns">
    <title>Untitled 3</title>
    <description>Created with Sketch (http://www.bohemiancoding.com/sketch)</description>
    <defs></defs>
    <g id="Page-1" stroke="none" stroke-width="1" fill="none" fill-rule="evenodd" sketch:type="MSPage">
        <path d="M5.15621915,19.5813727 C4.57291839,18.0103409 3.9896502,16.3891983 3.44566659,14.8070173 C3.26219893,14.2734001 3.08600522,13.7522067 2.91800135,13.2455278 C1.71114631,9.60580217 1,6.92568586 1,5.84375 C1,3.137025 2.82847059,1 5,1 C7.17152941,1 9,3.137025 9,5.84375 C9,6.92568586 8.28885369,9.60580217 7.08199865,13.2455278 C6.91399478,13.7522067 6.73780107,14.2734001 6.55433341,14.8070173 C6.0103498,16.3891983 5.42708161,18.0103409 4.84378085,19.5813727 C4.71119452,19.9384738 4.58477504,20.2763194 4.46586248,20.5918743 C3.17660866,17.1522287 0,8.41622733 0,5.84375 C0,2.61633583 2.23857611,0 5,0 C7.76142389,0 10,2.61633583 10,5.84375 C10,8.41622733 6.82339134,17.1522287 5.53413752,20.5918743 C5.41522496,20.2763194 5.28880548,19.9384738 5.15621915,19.5813727 Z" id="Oval-83" opacity="0.7" fill="#303F47" sketch:type="MSShapeGroup"></path>
    </g>
</svg>